<svg width="20" height="20" viewBox="0 0 20 20" fill="none" xmlns="http://www.w3.org/2000/svg">
<path fill-rule="evenodd" clip-rule="evenodd" d="M9.707 16.707C9.51947 16.8945 9.26516 16.9998 9 16.9998C8.73484 16.9998 8.48053 16.8945 8.293 16.707L2.293 10.707C2.10553 10.5195 2.00021 10.2652 2.00021 10C2.00021 9.73485 2.10553 9.48054 2.293 9.29301L8.293 3.29301C8.4816 3.11085 8.7342 3.01006 8.9964 3.01234C9.2586 3.01461 9.50941 3.11978 9.69482 3.30519C9.88023 3.4906 9.9854 3.74141 9.98767 4.00361C9.98995 4.26581 9.88916 4.51841 9.707 4.70701L5.414 9.00001H17C17.2652 9.00001 17.5196 9.10537 17.7071 9.2929C17.8946 9.48044 18 9.73479 18 10C18 10.2652 17.8946 10.5196 17.7071 10.7071C17.5196 10.8947 17.2652 11 17 11H5.414L9.707 15.293C9.89447 15.4805 9.99979 15.7348 9.99979 16C9.99979 16.2652 9.89447 16.5195 9.707 16.707Z" fill="black"/>
</svg>
