<svg width="24" height="25" viewBox="0 0 24 25" fill="none" xmlns="http://www.w3.org/2000/svg">
<path d="M4.318 6.818C3.90013 7.23586 3.56866 7.73194 3.34251 8.27791C3.11636 8.82388 2.99996 9.40905 2.99996 10C2.99996 10.591 3.11636 11.1761 3.34251 11.7221C3.56866 12.2681 3.90013 12.7641 4.318 13.182L12 20.864L19.682 13.182C20.5259 12.3381 21 11.1935 21 10C21 8.80652 20.5259 7.66192 19.682 6.818C18.8381 5.97408 17.6935 5.49997 16.5 5.49997C15.3065 5.49997 14.1619 5.97408 13.318 6.818L12 8.136L10.682 6.818C10.2641 6.40013 9.76806 6.06866 9.22209 5.84251C8.67612 5.61636 8.09095 5.49996 7.5 5.49996C6.90905 5.49996 6.32388 5.61636 5.77791 5.84251C5.23194 6.06866 4.73586 6.40013 4.318 6.818Z" stroke="black" stroke-width="2" stroke-linecap="round" stroke-linejoin="round"/>
</svg>
